<svg fill="#000000" height="300px" width="600px" version="1.1" id="Layer_1"
			xmlns="http://www.w3.org/2000/svg" xmlns:xlink="http://www.w3.org/1999/xlink" viewBox="0 0 512 512"
			xml:space="preserve">
	<g>
		<g>
			<path id="board"
					d="M508.852,167.869v-16.787H347.279V0h-16.787v151.082H179.41V0h-16.787v151.082H3.148v16.787h159.475v151.082H3.148v16.787h159.475V512h16.787V335.738h151.082V512h16.787V335.738h161.574v-16.787H347.279V167.869H508.852z M330.492,318.951H179.41V167.869h151.082V318.951z"
					fill="#000000"/>
		</g>
	</g>

	<g>
		<g>
			<path id="P0" d="M256,184.656c-32.398,0-58.754,26.356-58.754,58.754s26.356,58.754,58.754,58.754s58.754-26.356,58.754-58.754
               S288.398,184.656,256,184.656z M256,285.377c-23.141,0-41.967-18.827-41.967-41.967s18.826-41.967,41.967-41.967
               s41.967,18.827,41.967,41.967S279.141,285.377,256,285.377z"/>
		</g>
	</g>
	<g>
		<g>
			<path id="P1"
						d="M100,243.41l44.426-44.425c3.279-3.279,3.279-8.592,0-11.871c-3.275-3.277-8.594-3.277-11.869,0L88.131,231.54
               l-44.426-44.426c-3.275-3.277-8.594-3.277-11.869,0c-3.279,3.279-3.279,8.592,0,11.871l44.426,44.425l-44.426,44.425
               c-3.279,3.279-3.279,8.592,0,11.871c1.637,1.638,3.787,2.458,5.934,2.458s4.297-0.82,5.934-2.458l44.426-44.426l44.426,44.426
               c1.637,1.638,3.787,2.458,5.934,2.458s4.297-0.82,5.934-2.458c3.279-3.279,3.279-8.592,0-11.871L100,243.41z" />
		</g>
	</g>
	<path id="win" d="M 50 450 L 460 40 Z" stroke-width="10" />
</svg>