<?xml version="1.0" encoding="utf-8"?>
<!-- Uploaded to: SVG Repo, www.svgrepo.com, Generator: SVG Repo Mixer Tools -->
<svg height="800px" width="800px" version="1.1" id="Uploaded to svgrepo.com" xmlns="http://www.w3.org/2000/svg" xmlns:xlink="http://www.w3.org/1999/xlink" 
	 viewBox="0 0 32 32" xml:space="preserve">
<style type="text/css">
	.hatch_een{fill:#265AA5;}
	.hatch_twee{fill:#FFC5BB;}
</style>
<g>
	<path class="hatch_twee" d="M6.567,26.208l-3.409,3.409c-0.153-0.097-0.3-0.207-0.434-0.341c-0.109-0.109-0.203-0.229-0.287-0.352
		l3.436-3.436c0.123,0.085,0.239,0.181,0.349,0.291C6.355,25.912,6.47,26.054,6.567,26.208z M10.699,24.662l0.707,0.707l2.098-2.098
		l-0.707-0.707L10.699,24.662z M12.699,26.662l0.707,0.707l2.098-2.098l-0.707-0.707L12.699,26.662z M6.577,24.783
		c0.12,0.092,0.242,0.18,0.351,0.289c0.132,0.132,0.242,0.277,0.35,0.425l1.421-1.421l-0.707-0.707L6.577,24.783z M4.699,18.662
		l0.707,0.707l2.098-2.098l-0.707-0.707L4.699,18.662z M8.699,22.662l0.707,0.707l2.098-2.098l-0.707-0.707L8.699,22.662z
		 M6.699,20.662l0.707,0.707l2.098-2.098l-0.707-0.707L6.699,20.662z"/>
	<path class="hatch_een" d="M30.005,1C30.004,1,30.002,1,30,1c-0.012,0-0.025,0-0.037,0.001c-0.061,0.002-0.121,0.01-0.179,0.023
		L22.81,2.418c-0.225,0.045-0.428,0.166-0.575,0.344L9.641,17.993L6.928,15.28c-0.195-0.195-0.451-0.293-0.707-0.293
		s-0.512,0.098-0.707,0.293l-2.098,2.098c-0.188,0.188-0.293,0.442-0.293,0.707c0,0.265,0.105,0.52,0.293,0.707l2.786,2.786
		l-2.589,2.596c-0.597,0.152-1.149,0.45-1.596,0.897C1.361,25.728,1,26.6,1,27.527c0,0.928,0.361,1.8,1.017,2.456
		C2.673,30.639,3.545,31,4.473,31c0.928,0,1.8-0.361,2.456-1.017c0.447-0.447,0.745-0.999,0.897-1.596l0,0l2.588-2.596l2.794,2.794
		c0.188,0.188,0.442,0.293,0.707,0.293s0.52-0.105,0.707-0.293l2.098-2.098c0.391-0.391,0.391-1.024,0-1.414l-2.711-2.711
		l15.23-12.596c0.177-0.146,0.299-0.349,0.344-0.575l1.385-6.925C30.99,2.181,31.003,2.092,31.003,2C31.003,1.448,30.557,1,30.005,1
		z M6.221,29.276C5.738,29.759,5.105,30,4.473,30s-1.266-0.241-1.748-0.724c-0.966-0.966-0.966-2.531,0-3.497
		c0.483-0.483,1.116-0.724,1.748-0.724s1.266,0.241,1.748,0.724C7.187,26.745,7.187,28.31,6.221,29.276z M7.885,26.912
		c-0.123-0.693-0.449-1.332-0.957-1.84c-0.508-0.508-1.147-0.834-1.84-0.957l1.819-1.831l2.802,2.802L7.885,26.912z M13.914,27.877
		l-9.791-9.791l2.098-2.098l9.791,9.791L13.914,27.877z M28.601,8.994L13.29,21.642l-2.932-2.932L23.006,3.399L30,2L28.601,8.994z"
		/>
</g>
</svg>