<?xml version="1.0" encoding="utf-8"?><!-- Uploaded to: SVG Repo, www.svgrepo.com, Generator: SVG Repo Mixer Tools -->
<svg width="800px" height="800px" viewBox="0 0 24 24" id="sound-max" xmlns="http://www.w3.org/2000/svg" class="icon multi-color"><title style="stroke-width: 2;">sound max</title><path id="secondary-fill" d="M7,9v6H4a1,1,0,0,1-1-1V10A1,1,0,0,1,4,9Z" style="fill: rgb(44, 169, 188); stroke-width: 2;"></path><path id="primary-stroke" d="M11,5V19L7,15H4a1,1,0,0,1-1-1V10A1,1,0,0,1,4,9H7Z" style="fill: none; stroke: rgb(0, 0, 0); stroke-linecap: round; stroke-linejoin: round; stroke-width: 2;"></path><path id="tertiary-stroke" d="M18.36,5.64a9,9,0,0,1,0,12.72m-2.82-2.82a5,5,0,0,0,0-7.08" style="fill: none; stroke: #b7b7b7; stroke-linecap: round; stroke-linejoin: round; stroke-width: 2;"></path></svg>